# xmcd
#
# Track frame offsets:
#	150
#	22345
#	44535
#	64297
#	84085
#	105941
#	124374
#	149705
#	158192
#	167432
#	178932
#	197134
#	226094
#	248309
#	268693
#	288489
#	318428
#
# Disc length: 4486 seconds
#
# Revision: 3
# Processed by: cddbd v1.5.1PL2 Copyright (c) Steve Scherf et al.
# Submitted via: audiograbber 1.83.01
#
DISCID=f1118411
DTITLE=Patricia Kaas - Toute la Musique...
DYEAR=2005
DGENRE=Chanson
TTITLE0=D'Allemagne
TTITLE1=Ceux qui n'ont rien
TTITLE2=Ou sont les Hommes
TTITLE3=La nuit est mauve
TTITLE4=Il me dit que je suis belle
TTITLE5=Je voudrais la connaître
TTITLE6=Des regrets
TTITLE7=Une fille de l'Est
TTITLE8=Une dernière semaine à New York
TTITLE9=Entrer dans la lumière
TTITLE10=On pourrait
TTITLE11=Mademoiselle chante le Blues
TTITLE12=Toute la musique que j'aime
TTITLE13=Quand on n'a que l'Amour
TTITLE14=Je le garde pour toi
TTITLE15=L'Aigle noir
TTITLE16=Herz eines Kämpfers
EXTD=
EXTT0=
EXTT1=
EXTT2=
EXTT3=
EXTT4=
EXTT5=
EXTT6=
EXTT7=
EXTT8=
EXTT9=
EXTT10=
EXTT11=
EXTT12=
EXTT13=
EXTT14=
EXTT15=
EXTT16=
PLAYORDER=
